<?xml version="1.0" encoding="utf-8"?>
<!-- Generator: Adobe Illustrator 22.1.0, SVG Export Plug-In . SVG Version: 6.00 Build 0)  -->
<svg version="1.1" id="Calque_1" xmlns="http://www.w3.org/2000/svg" xmlns:xlink="http://www.w3.org/1999/xlink" x="0px" y="0px"
	 viewBox="0 0 8192 3331.5" style="enable-background:new 0 0 8192 3331.5;" xml:space="preserve">
<style type="text/css">
	.st0{fill:none;}
	.st1{fill:#0D8787;}
	.st2{font-family:'VarelaRound-Regular';}
	.st3{font-size:896.5745px;}
	.st4{font-family:'MyriadPro-Regular';}
	.st5{font-size:245px;}
</style>
<title>Background-facade-title-colours</title>
<image style="overflow:visible;enable-background:new    ;" width="4928" height="3264" xlink:href="A43348CA0ED5914B.jpg"  transform="matrix(1.6658 0 0 1.0251 -25.5411 3774.314)">
</image>
<rect x="7550.6" y="665" class="st0" width="15.3" height="1816.9"/>
<g>
	<path class="st1" d="M4215.8,748l-225,98.7c-6,2.6-13,0.2-15.8-5.3c-0.1-0.2-0.2-0.5-0.3-0.7l-4.9-10.9c-2.7-6,0-12.9,6.3-15.8
		l225-98.7c5.9-2.6,13-0.3,15.8,5.2c0.1,0.3,0.3,0.5,0.4,0.8l4.9,10.9C4224.9,738.1,4222.1,745,4215.8,748z"/>
	<path class="st1" d="M4362.3,1075l-225,98.7c-5.9,2.6-13,0.2-15.8-5.2c-0.1-0.2-0.2-0.5-0.3-0.7l-4.8-10.9
		c-2.7-6,0.1-13.1,6.3-15.8l225-98.7c5.9-2.6,13-0.3,15.8,5.2c0.1,0.3,0.3,0.5,0.4,0.8l4.8,10.9
		C4371.4,1065.2,4368.6,1072.1,4362.3,1075z"/>
	<path class="st1" d="M3601.1,1148.7l447.4-173.2L4003,873.9c-2.7-6,0.2-13.1,6.3-15.8l202.5-88.9c5.9-2.6,13-0.2,15.8,5.2
		c0.1,0.2,0.2,0.5,0.3,0.7l107.4,239.8c2.7,6-0.2,13.1-6.4,15.8l-202.5,88.8c-5.9,2.6-12.9,0.3-15.7-5.1c-0.1-0.3-0.3-0.5-0.4-0.8
		l-45.5-101.6L3634.8,1224c-6.1,3-13.2,0.5-15.9-5.5l-24.4-54.5C3591.8,1158.1,3594.7,1151.3,3601.1,1148.7z"/>
	<path class="st1" d="M3530.9,1172.4l22.5-9.9c5.9-2.6,13-0.2,15.8,5.2c0.1,0.2,0.2,0.5,0.3,0.7l29.3,65.4c2.7,6-0.2,13.1-6.4,15.8
		l-22.5,9.9c-5.9,2.6-13,0.3-15.8-5.1c-0.1-0.3-0.3-0.5-0.4-0.8l-29.3-65.4C3521.9,1182.2,3524.7,1175.1,3530.9,1172.4z"/>
	<path class="st1" d="M1972.3,1896.9c-9.1-8.3-13.7-18.5-13.7-30.6l-0.7-579.6c-0.2-11.6,4.7-22.8,13.6-31
		c9.1-8.6,20.3-12.9,33.7-12.9l248.5-0.2c75.1-0.1,133.2,15.5,174.3,46.6c41.1,31.1,61.7,73.1,61.7,126c0,36.9-9.6,67.7-28.9,92.2
		c-18.8,24.2-44.5,43.2-74.2,54.9c42.1,12,76.7,31.4,103.8,58.1c27.1,26.7,40.6,60.4,40.6,101.2c0.1,58.6-21.6,104.4-65.1,137.6
		c-43.5,33.1-111.9,49.7-205.3,49.9l-254.8,0.3C1992.6,1909.2,1981.4,1905.1,1972.3,1896.9z M2224.5,1528.1
		c62.3-0.1,106.1-9.6,131.3-28.7c25.2-19.1,37.8-45.8,37.7-80.1c0-29.8-13.5-53.6-40.5-71.4c-27-17.8-63.9-26.6-110.8-26.6
		l-192.3,0.2l0.3,206.7L2224.5,1528.1z M2247.4,1826c68.2-0.1,116.6-9.7,145-28.8c28.5-19.2,42.7-46.3,42.7-81.4
		c-0.1-72.7-62.4-109-186.9-108.9l-198.4,0.2l0.3,219.1L2247.4,1826z"/>
	<path class="st1" d="M2676.3,1893c-9.2-8.3-13.8-18.6-13.8-30.8l-0.7-593.7c-0.2-11.7,4.7-23,13.7-31.3c9.2-8.7,20.5-13,34-13
		c12.9-0.2,25.4,4.5,34.5,13c9.3,8.1,14.5,19.5,14.3,31.3l0.7,593.7c0,12.2-4.7,22.5-14.3,30.8c-9.2,8.2-21.6,12.7-34.5,12.6
		C2696.8,1905.5,2685.5,1901.3,2676.3,1893z"/>
	<path class="st1" d="M2948.5,1887.9c-9.1-8.3-13.7-18.5-13.7-30.6l-0.7-579.5c-0.2-11.6,4.7-22.8,13.6-31
		c9.1-8.6,20.3-12.9,33.7-12.9l211.6-0.2c80-0.1,147.9,15.9,203.8,48c55.9,32.1,97.9,73.6,126,124.5
		c28.1,50.9,42.2,104.4,42.3,160.4c0.1,56-13.9,109.5-41.9,160.4c-28,51-69.9,92.5-125.7,124.8c-55.7,32.2-123.6,48.3-203.6,48.4
		l-211.6,0.2C2968.9,1900.3,2957.7,1896.1,2948.5,1887.9z M3178.5,1817.1c57.6-0.1,108.2-10.8,151.7-32.2
		c43.6-21.4,77.2-51.1,101-89c23.8-37.9,35.7-81.7,35.7-131.4c-0.1-49.7-12.1-93.5-36-131.4c-23.9-37.9-57.7-67.5-101.3-88.8
		c-43.6-21.3-94.2-31.9-151.8-31.9l-151.8,0.2l0.6,504.7L3178.5,1817.1z"/>
	<path class="st1" d="M4394.9,1888.1c-9-8.2-13.6-18.2-13.6-30.2l-0.7-572.4c-0.2-11.5,4.7-22.5,13.5-30.6
		c9-8.5,20.1-12.7,33.3-12.8l245.9-0.2c74.3-0.1,131.8,15.3,172.4,46s61,72.2,61.1,124.4c0.1,36.5-9.5,66.8-28.5,91
		c-18.6,23.9-44,42.7-73.4,54.3c41.7,11.9,75.9,31,102.7,57.4c26.8,26.4,40.2,59.7,40.2,99.9c0.1,57.9-21.4,103.1-64.4,135.8
		c-43,32.7-110.7,49.1-203.1,49.2l-252.1,0.3C4415.1,1900.3,4403.9,1896.2,4394.9,1888.1z M4652.1,1527.4
		c62.4-0.1,106.3-9.6,131.5-28.7c25.2-19.1,37.8-45.8,37.8-80.1c0-29.8-13.6-53.6-40.6-71.4c-27.1-17.8-64.1-26.6-111-26.6
		l-192.6,0.2l0.3,206.7L4652.1,1527.4z M4671.4,1821.2c67-0.1,114.6-9.5,142.6-28.3c28-18.8,42-45.4,41.9-79.8
		c-0.1-71.4-61.3-107-183.7-106.8l-195,0.2l0.3,215L4671.4,1821.2z"/>
	<path class="st1" d="M5088.7,1903.4c-9.2-8.3-13.8-18.6-13.8-30.7l-0.7-592.6c-0.2-11.7,4.7-23,13.7-31.2c9.2-8.6,20.5-13,34-13
		c12.9-0.2,25.4,4.5,34.5,12.9c9.3,8.1,14.5,19.4,14.3,31.2l0.7,592.6c0,12.1-4.7,22.4-14.2,30.7c-9.2,8.2-21.6,12.7-34.5,12.5
		C5109.3,1915.9,5097.9,1911.7,5088.7,1903.4z"/>
	<path class="st1" d="M5369.3,1886.8c-10.7-11.8-16-26-16-42.6l-0.7-569.1c0-12.1,3.7-22.5,11.1-31.2c7.4-8.6,16.6-13,27.5-13
		c10.9,0,20.2,4.3,28,12.9s11.6,19,11.6,31.1l0.7,542.3l281.3-0.3c10.9,0,20.2,4.3,28,12.9c7.8,8.6,11.7,19,11.7,31.1
		c0,12.2-3.9,22.4-11.6,30.7c-7.7,8.3-17,12.5-28,12.5l-305.4,0.3C5392.6,1904.5,5379.9,1898.6,5369.3,1886.8z"/>
	<path class="st1" d="M5952.5,1886.8c-13.1-11.8-19.7-26-19.7-42.6l-0.7-569.6c-0.2-11.7,4.7-22.9,13.7-31.2c9.2-8.6,20.5-13,34-13
		c12.9-0.2,25.4,4.5,34.5,12.9c9.3,8.1,14.5,19.4,14.3,31.2l0.7,542.7l346.9-0.3c12.9-0.2,25.4,4.4,34.5,12.9
		c9.6,8.7,14.4,19,14.4,31.2c0,12.1-4.8,22.4-14.3,30.7c-9.5,8.3-21,12.5-34.4,12.5l-376.6,0.4
		C5981.3,1904.6,5965.6,1898.7,5952.5,1886.8z"/>
	<text transform="matrix(1.2605 0.3463 -0.3124 0.9499 3565.8479 1754.5903)" class="st1 st2 st3">n</text>
	<rect x="1441.1" y="2101.7" class="st0" width="5309.9" height="436.6"/>
	<text transform="matrix(1 0 0 1 2033.7473 2275.6101)" class="st1 st4 st5">A simple way to take control of your bills</text>
</g>
</svg>
