<?xml version="1.0" encoding="iso-8859-1"?>
<!-- Generator: Adobe Illustrator 19.0.0, SVG Export Plug-In . SVG Version: 6.00 Build 0)  -->
<svg version="1.1" id="Capa_1" xmlns="http://www.w3.org/2000/svg" xmlns:xlink="http://www.w3.org/1999/xlink" x="0px" y="0px"
	 viewBox="0 0 479.997 479.997" style="enable-background:new 0 0 479.997 479.997;" xml:space="preserve">
<g>
	<g>
		<path d="M419.446,0.798c-2.783-1.329-6.082-0.94-8.48,1l-29.768,24.088L357.654,2.342c-3.124-3.123-8.188-3.123-11.312,0
			l-22.344,22.344L301.654,2.342c-3.124-3.123-8.188-3.123-11.312,0l-22.344,22.344L245.654,2.342
			c-3.124-3.123-8.188-3.123-11.312,0l-22.344,22.344L189.654,2.342c-3.124-3.123-8.188-3.123-11.312,0l-22.344,22.344
			L133.654,2.342c-3.124-3.123-8.188-3.123-11.312,0L98.798,25.886L69.03,1.782c-3.435-2.779-8.472-2.248-11.251,1.187
			c-1.151,1.423-1.78,3.198-1.781,5.029v464c0.002,4.418,3.585,7.999,8.003,7.997c1.831-0.001,3.606-0.629,5.029-1.781
			l29.776-24.088l23.536,23.528c3.124,3.123,8.188,3.123,11.312,0l22.344-22.344l22.344,22.344c3.124,3.123,8.188,3.123,11.312,0
			l22.344-22.344l22.344,22.344c3.124,3.123,8.188,3.123,11.312,0l22.344-22.344l22.344,22.344c3.124,3.123,8.188,3.123,11.312,0
			l22.344-22.344l22.344,22.344c3.124,3.123,8.188,3.123,11.312,0l23.536-23.528l29.776,24.088
			c3.435,2.779,8.472,2.247,11.251-1.187c1.151-1.423,1.78-3.198,1.781-5.029v-464C423.991,4.923,422.221,2.124,419.446,0.798z
			 M407.998,455.198l-22.344-18.072c-3.181-2.575-7.793-2.333-10.688,0.56l-22.968,23l-22.344-22.344
			c-3.124-3.123-8.188-3.123-11.312,0l-22.344,22.344l-22.344-22.344c-3.124-3.123-8.188-3.123-11.312,0l-22.344,22.344
			l-22.344-22.344c-3.124-3.123-8.188-3.123-11.312,0l-22.344,22.344l-22.344-22.344c-3.124-3.123-8.188-3.123-11.312,0
			l-22.344,22.344l-22.968-22.968c-2.895-2.893-7.507-3.135-10.688-0.56l-22.344,18.04v-430.4l22.328,18.08
			c3.181,2.575,7.793,2.333,10.688-0.56l22.984-23.008l22.344,22.344c3.124,3.123,8.188,3.123,11.312,0l22.344-22.344l22.344,22.344
			c3.124,3.123,8.188,3.123,11.312,0l22.344-22.344l22.344,22.344c3.124,3.123,8.188,3.123,11.312,0l22.344-22.344l22.344,22.344
			c3.124,3.123,8.188,3.123,11.312,0l22.344-22.344l22.984,22.984c2.895,2.893,7.507,3.135,10.688,0.56l22.328-18.056V455.198z"/>
	</g>
</g>
<g>
	<g>
		<rect x="199.998" y="63.998" width="16" height="128"/>
	</g>
</g>
<g>
	<g>
		<path d="M247.998,175.998v-112h-16v120c0,4.418,3.582,8,8,8h48v-16H247.998z"/>
	</g>
</g>
<g>
	<g>
		<path d="M319.998,175.998v-112h-16v120c0,4.418,3.582,8,8,8h48v-16H319.998z"/>
	</g>
</g>
<g>
	<g>
		<path d="M183.998,87.998c0-13.255-10.745-24-24-24h-32c-4.418,0-8,3.582-8,8v112c0,4.418,3.582,8,8,8h32c13.255,0,24-10.745,24-24
			v-24c-0.021-5.923-2.245-11.627-6.24-16c3.995-4.373,6.219-10.077,6.24-16V87.998z M167.998,167.998c0,4.418-3.582,8-8,8h-24v-40
			h24c4.418,0,8,3.582,8,8V167.998z M167.998,111.998c0,4.418-3.582,8-8,8h-24v-40h24c4.418,0,8,3.582,8,8V111.998z"/>
	</g>
</g>
<g>
	<g>
		<rect x="119.998" y="223.998" width="16" height="16"/>
	</g>
</g>
<g>
	<g>
		<rect x="151.998" y="223.998" width="64" height="16"/>
	</g>
</g>
<g>
	<g>
		<rect x="119.998" y="255.998" width="96" height="16"/>
	</g>
</g>
<g>
	<g>
		<rect x="119.998" y="287.998" width="96" height="16"/>
	</g>
</g>
<g>
	<g>
		<rect x="119.998" y="319.998" width="96" height="16"/>
	</g>
</g>
<g>
	<g>
		<rect x="119.998" y="351.998" width="96" height="16"/>
	</g>
</g>
<g>
	<g>
		<rect x="263.998" y="223.998" width="96" height="16"/>
	</g>
</g>
<g>
	<g>
		<rect x="263.998" y="255.998" width="16" height="16"/>
	</g>
</g>
<g>
	<g>
		<rect x="295.998" y="255.998" width="64" height="16"/>
	</g>
</g>
<g>
	<g>
		<rect x="263.998" y="287.998" width="96" height="16"/>
	</g>
</g>
<g>
	<g>
		<rect x="263.998" y="319.998" width="96" height="16"/>
	</g>
</g>
<g>
	<g>
		<rect x="263.998" y="351.998" width="96" height="16"/>
	</g>
</g>
<g>
</g>
<g>
</g>
<g>
</g>
<g>
</g>
<g>
</g>
<g>
</g>
<g>
</g>
<g>
</g>
<g>
</g>
<g>
</g>
<g>
</g>
<g>
</g>
<g>
</g>
<g>
</g>
<g>
</g>
</svg>
