<svg id="Layer_1" data-name="Layer 1" xmlns="http://www.w3.org/2000/svg" viewBox="0 0 384 512"><defs><style>.cls-1{fill:#0d8787;}</style></defs><title>invoice</title><path class="cls-1" d="M444.88,109.79,338.21,3.12A10.66,10.66,0,0,0,330.67,0h-224A42.72,42.72,0,0,0,64,42.67V469.33A42.72,42.72,0,0,0,106.67,512H405.33A42.72,42.72,0,0,0,448,469.33v-352A10.66,10.66,0,0,0,444.88,109.79ZM341.33,36.42l70.25,70.25H362.67a21.37,21.37,0,0,1-21.34-21.34Zm85.34,432.91a21.37,21.37,0,0,1-21.34,21.34H106.67a21.37,21.37,0,0,1-21.34-21.34V42.67a21.37,21.37,0,0,1,21.34-21.34H320v64A42.72,42.72,0,0,0,362.67,128h64Z" transform="translate(-64)"/><path class="cls-1" d="M373.33,298.67H138.67a10.67,10.67,0,1,0,0,21.33H373.33a10.67,10.67,0,1,0,0-21.33Z" transform="translate(-64)"/><path class="cls-1" d="M373.33,234.67H138.67a10.67,10.67,0,1,0,0,21.33H373.33a10.67,10.67,0,1,0,0-21.33Z" transform="translate(-64)"/><path class="cls-1" d="M373.33,362.67H138.67a10.67,10.67,0,1,0,0,21.33H373.33a10.67,10.67,0,1,0,0-21.33Z" transform="translate(-64)"/><path class="cls-1" d="M266.67,426.67h-128a10.67,10.67,0,1,0,0,21.33h128a10.67,10.67,0,0,0,0-21.33Z" transform="translate(-64)"/><path class="cls-1" d="M234.67,181.33A10.66,10.66,0,0,0,245.33,192h128a10.67,10.67,0,1,0,0-21.33h-128A10.66,10.66,0,0,0,234.67,181.33Z" transform="translate(-64)"/><path class="cls-1" d="M160,170.67H138.67a10.67,10.67,0,1,0,0,21.33h10.66a10.67,10.67,0,0,0,21.34,0v-2A31.92,31.92,0,0,0,160,128a10.67,10.67,0,1,1,0-21.33h21.33a10.67,10.67,0,0,0,0-21.34H170.67a10.67,10.67,0,0,0-21.34,0v2a31.92,31.92,0,0,0,10.67,62,10.67,10.67,0,0,1,0,21.34Z" transform="translate(-64)"/></svg>