<svg id="Capa_1" data-name="Capa 1" xmlns="http://www.w3.org/2000/svg" viewBox="0 0 225 188"><defs><style>.cls-1{fill:#0d8787;}</style></defs><title>law-good-size</title><path class="cls-1" d="M212.18,135.25l49.09,31.65a2.68,2.68,0,0,0,3.86-1.16l1.4-2.73a3.44,3.44,0,0,0-1-4.34L216.39,127a2.68,2.68,0,0,0-3.86,1.16l-1.4,2.73A3.44,3.44,0,0,0,212.18,135.25Z" transform="translate(-134.75 -126.6)"/><path class="cls-1" d="M169.61,217.43l49.1,31.65a2.67,2.67,0,0,0,3.85-1.16l1.4-2.73a3.35,3.35,0,0,0-1.05-4.34L173.82,209.2a2.68,2.68,0,0,0-3.86,1.16l-1.4,2.73A3.44,3.44,0,0,0,169.61,217.43Z" transform="translate(-134.75 -126.6)"/><path class="cls-1" d="M342.84,256.1l-98.33-56.84,13.19-25.55a3.45,3.45,0,0,0-1.05-4.34L212.46,140.9a2.67,2.67,0,0,0-3.85,1.16L177.4,202.34a3.45,3.45,0,0,0,1,4.34l44.18,28.47a2.69,2.69,0,0,0,3.86-1.16l13.25-25.55L333,275a2.51,2.51,0,0,0,3.79-1.06l7.08-13.68A3.1,3.1,0,0,0,342.84,256.1Z" transform="translate(-134.75 -126.6)"/><path class="cls-1" d="M358.34,264.07l-4.91-3.18a2.68,2.68,0,0,0-3.86,1.16l-8.49,16.46a3.37,3.37,0,0,0,1.06,4.29L347,286a2.68,2.68,0,0,0,3.86-1.16l8.49-16.46A3.39,3.39,0,0,0,358.34,264.07Z" transform="translate(-134.75 -126.6)"/><path class="cls-1" d="M252,283.6h-5.55a5.41,5.41,0,0,0,1.26-3.51v-5.24a5,5,0,0,0-4.7-5.25h-93.6c-2.59,0-4.7,2.4-4.7,5.25v5.24A5.46,5.46,0,0,0,146,283.6h-6.55a5,5,0,0,0-4.72,5.2v20.65a4.94,4.94,0,0,0,4.72,5.15H252a5,5,0,0,0,4.71-5.15v-20.7A4.94,4.94,0,0,0,252,283.6Zm-6.18,24H147.65c-2.73,0-4.9-2.54-4.9-5.66v-5.67c0-3.12,2.24-5.67,4.9-5.67h98.21c2.73,0,4.89,2.55,4.89,5.62v5.67C250.75,305.06,248.59,307.6,245.86,307.6Z" transform="translate(-134.75 -126.6)"/></svg>