<svg id="Calque_1" data-name="Calque 1" xmlns="http://www.w3.org/2000/svg" viewBox="0 0 1078 375.04"><defs><style>.cls-1{fill:#0d8787;}.cls-2,.cls-3,.cls-4{fill:#fff;}.cls-3{stroke:#626262;stroke-miterlimit:10;}.cls-4{font-size:196.83px;font-family:VarelaRound-Regular, Varela Round;}</style></defs><title>Logo-bidnbill-landing-page-white-two</title><rect class="cls-1" width="1078" height="355"/><path class="cls-2" d="M663.77,167.07,629,211.19a2.67,2.67,0,0,1-3.92.25l-2.17-2a3.11,3.11,0,0,1-.43-4.15l34.83-44.12a2.64,2.64,0,0,1,3.9-.26l2.17,2A3.1,3.1,0,0,1,663.77,167.07Z" transform="translate(-93 -141)"/><path class="cls-2" d="M728.81,225.64,694,269.77a2.66,2.66,0,0,1-3.91.26l-2.16-1.95a3.09,3.09,0,0,1-.43-4.16l34.82-44.12a2.64,2.64,0,0,1,3.9-.25l2.17,1.95A3.07,3.07,0,0,1,728.81,225.64Z" transform="translate(-93 -141)"/><path class="cls-2" d="M582.81,316.84l71.76-82.58-20.21-18.19a3.12,3.12,0,0,1-.44-4.16l31.35-39.71a2.66,2.66,0,0,1,3.91-.25l47.7,43a3.12,3.12,0,0,1,.43,4.16L686,258.76a2.64,2.64,0,0,1-3.9.26l-20.21-18.19-64.06,89.5a2.51,2.51,0,0,1-3.81.33l-10.85-9.76A2.94,2.94,0,0,1,582.81,316.84Z" transform="translate(-93 -141)"/><path class="cls-2" d="M571.19,329l3.48-4.4a2.66,2.66,0,0,1,3.91-.26l13,11.71a3.1,3.1,0,0,1,.42,4.15l-3.47,4.41a2.65,2.65,0,0,1-3.91.25l-13-11.71A3.09,3.09,0,0,1,571.19,329Z" transform="translate(-93 -141)"/><path class="cls-2" d="M135.5,454.57a10,10,0,0,1-3-7.38l-.15-140.07a10.38,10.38,0,0,1,3-7.49,9.85,9.85,0,0,1,7.39-3.13l54.46-.06q24.67,0,38.19,11.26t13.54,30.45q0,13.39-6.32,22.27a39,39,0,0,1-16.26,13.29,51.13,51.13,0,0,1,22.75,14.05q8.89,9.67,8.91,24.45,0,21.24-14.27,33.24t-45,12.05l-55.83.06A10.07,10.07,0,0,1,135.5,454.57Zm55.27-89.11q20.49,0,28.77-6.94t8.27-19.35a20.31,20.31,0,0,0-8.89-17.25q-8.86-6.44-24.29-6.42l-42.13.05.05,49.95Zm5,72q22.42,0,31.79-7t9.34-19.66q0-26.37-41-26.32l-43.48.05.06,52.95Z" transform="translate(-93 -141)"/><path class="cls-2" d="M295.53,457a10.06,10.06,0,0,1-3-7.43l-.16-143.48a10.52,10.52,0,0,1,3-7.56,9.91,9.91,0,0,1,7.45-3.15A10.7,10.7,0,0,1,313.5,306l.16,143.48a9.92,9.92,0,0,1-3.13,7.44,10.48,10.48,0,0,1-7.55,3A10,10,0,0,1,295.53,457Z" transform="translate(-93 -141)"/><path class="cls-2" d="M361.5,454.56a10,10,0,0,1-3-7.38l-.15-140.06a10.38,10.38,0,0,1,3-7.49,9.85,9.85,0,0,1,7.39-3.13l46.38-.05q26.29,0,44.65,11.6a75.15,75.15,0,0,1,27.61,30.08,86.06,86.06,0,0,1,.09,77.53A75,75,0,0,1,459.9,445.8q-18.33,11.67-44.63,11.7l-46.37.05A10.07,10.07,0,0,1,361.5,454.56Zm50.4-17.1q18.93,0,33.25-7.77a55.09,55.09,0,0,0,22.15-21.51q7.84-13.74,7.82-31.77t-7.89-31.75A55.13,55.13,0,0,0,445,323.2q-14.34-7.72-33.28-7.7l-33.26,0,.13,122Z" transform="translate(-93 -141)"/><path class="cls-2" d="M678.47,454.61a9.88,9.88,0,0,1-3-7.29L675.35,309a10.26,10.26,0,0,1,2.95-7.4,9.77,9.77,0,0,1,7.31-3.09l53.88-.06q24.43,0,37.79,11.12t13.4,30.07q0,13.23-6.26,22a38.56,38.56,0,0,1-16.08,13.12,50.5,50.5,0,0,1,22.5,13.87q8.8,9.57,8.82,24.15,0,21-14.12,32.83T741,457.5l-55.24.06A10,10,0,0,1,678.47,454.61Zm56.37-87.15q20.52,0,28.82-6.94T772,341.17A20.28,20.28,0,0,0,763,323.92q-8.88-6.44-24.33-6.42l-42.21.05.06,49.95Zm4.22,71q22.05,0,31.25-6.83t9.19-19.3q0-25.86-40.26-25.82l-42.74.05.06,51.95Z" transform="translate(-93 -141)"/><path class="cls-2" d="M845.53,456.31a10,10,0,0,1-3-7.42l-.16-143.21a10.5,10.5,0,0,1,3-7.55A10,10,0,0,1,852.8,295a10.7,10.7,0,0,1,10.7,10.67l.16,143.22a9.88,9.88,0,0,1-3.13,7.42,10.48,10.48,0,0,1-7.55,3A10.07,10.07,0,0,1,845.53,456.31Z" transform="translate(-93 -141)"/><path class="cls-2" d="M907,452.3a15.79,15.79,0,0,1-3.5-10.3l-.15-137.54a11.74,11.74,0,0,1,2.44-7.53,7.41,7.41,0,0,1,6-3.13,7.65,7.65,0,0,1,6.13,3.12,11.51,11.51,0,0,1,2.55,7.52l.15,131.06,61.65-.07a7.63,7.63,0,0,1,6.12,3.11,11.51,11.51,0,0,1,2.56,7.53,11.08,11.08,0,0,1-2.54,7.42,7.73,7.73,0,0,1-6.12,3l-66.93.07A10.45,10.45,0,0,1,907,452.3Z" transform="translate(-93 -141)"/><path class="cls-2" d="M1034.82,452.31a14,14,0,0,1-4.32-10.3l-.15-137.65a10.37,10.37,0,0,1,3-7.53,9.92,9.92,0,0,1,7.44-3.14,10.36,10.36,0,0,1,7.56,3.12,10.26,10.26,0,0,1,3.14,7.53l.14,131.16,76-.08a10.67,10.67,0,0,1,10.7,10.64,9.81,9.81,0,0,1-3.13,7.42,10.49,10.49,0,0,1-7.54,3l-82.54.09A14.1,14.1,0,0,1,1034.82,452.31Z" transform="translate(-93 -141)"/><line class="cls-3" x1="599.5" y1="372" x2="599.5" y2="375"/><text class="cls-4" transform="matrix(1.18, 0.01, 0, 1, 417.94, 318.08)">n</text></svg>