<svg id="Calque_1" data-name="Calque 1" xmlns="http://www.w3.org/2000/svg" viewBox="0 0 995.03 356"><defs><style>.cls-1,.cls-2,.cls-3{fill:#fff;}.cls-2{stroke:#626262;stroke-miterlimit:10;}.cls-3{font-size:214.17px;font-family:VarelaRound-Regular, Varela Round;}</style></defs><title>logo-langing-page-white-demo</title><path class="cls-1" d="M686.87,179.08l-49.3,23.86A2.59,2.59,0,0,1,634,201.5L633,198.86a3,3,0,0,1,1.39-3.82l49.3-23.86a2.59,2.59,0,0,1,3.54,1.44l1.07,2.63A3,3,0,0,1,686.87,179.08Z" transform="translate(-179.99 -170.92)"/><path class="cls-1" d="M719,258.11,669.65,282a2.6,2.6,0,0,1-3.54-1.44L665,277.91a3,3,0,0,1,1.39-3.82l49.31-23.86a2.58,2.58,0,0,1,3.53,1.44l1.07,2.63A3,3,0,0,1,719,258.11Z" transform="translate(-179.99 -170.92)"/><path class="cls-1" d="M552.15,275.93l98.05-41.86-10-24.55a3,3,0,0,1,1.38-3.83L686,184.22a2.59,2.59,0,0,1,3.53,1.44l23.54,58a3,3,0,0,1-1.4,3.83l-44.38,21.47a2.58,2.58,0,0,1-3.53-1.44l-10-24.55-94.26,51.2a2.44,2.44,0,0,1-3.48-1.33l-5.35-13.17A2.87,2.87,0,0,1,552.15,275.93Z" transform="translate(-179.99 -170.92)"/><path class="cls-1" d="M536.77,281.66l4.93-2.39a2.58,2.58,0,0,1,3.53,1.44l6.43,15.81a3,3,0,0,1-1.39,3.82l-4.93,2.38a2.57,2.57,0,0,1-3.53-1.44l-6.43-15.8A3,3,0,0,1,536.77,281.66Z" transform="translate(-179.99 -170.92)"/><path class="cls-1" d="M183.14,454.57a10,10,0,0,1-3-7.38L180,307.12a10.38,10.38,0,0,1,3-7.49,9.85,9.85,0,0,1,7.39-3.13l54.46-.06q24.68,0,38.19,11.26t13.54,30.45q0,13.39-6.32,22.27A39,39,0,0,1,274,373.71a51.13,51.13,0,0,1,22.75,14.05q8.89,9.67,8.91,24.45,0,21.24-14.27,33.24t-45,12.05l-55.83.06A10.07,10.07,0,0,1,183.14,454.57Zm55.27-89.11q20.49,0,28.77-6.94t8.27-19.35a20.31,20.31,0,0,0-8.89-17.25q-8.87-6.44-24.29-6.42l-42.13.05.05,49.95Zm5,72q22.43,0,31.78-7t9.35-19.66q0-26.37-40.95-26.32l-43.48.05.06,52.95Z" transform="translate(-179.99 -170.92)"/><path class="cls-1" d="M343.17,457a10.06,10.06,0,0,1-3-7.43L340,306.05a10.52,10.52,0,0,1,3-7.56,9.91,9.91,0,0,1,7.45-3.15A10.7,10.7,0,0,1,361.14,306l.16,143.48a9.92,9.92,0,0,1-3.13,7.44,10.48,10.48,0,0,1-7.55,3A10,10,0,0,1,343.17,457Z" transform="translate(-179.99 -170.92)"/><path class="cls-1" d="M409.14,454.56a10,10,0,0,1-3-7.38L406,307.12a10.34,10.34,0,0,1,3-7.49,9.85,9.85,0,0,1,7.39-3.13l46.38-.05q26.29,0,44.65,11.6A75.15,75.15,0,0,1,535,338.13a86.06,86.06,0,0,1,.09,77.53,75,75,0,0,1-27.55,30.14q-18.33,11.67-44.63,11.7l-46.37.05A10.07,10.07,0,0,1,409.14,454.56Zm50.4-17.1q18.93,0,33.25-7.77a55.09,55.09,0,0,0,22.15-21.51q7.84-13.74,7.82-31.77t-7.89-31.75a55.13,55.13,0,0,0-22.19-21.46q-14.34-7.72-33.28-7.7l-33.26,0,.13,122Z" transform="translate(-179.99 -170.92)"/><path class="cls-1" d="M726.11,454.61a9.88,9.88,0,0,1-3-7.29L723,309a10.26,10.26,0,0,1,3-7.4,9.77,9.77,0,0,1,7.31-3.09l53.88-.06q24.43,0,37.79,11.12t13.4,30.07q0,13.23-6.26,22A38.56,38.56,0,0,1,816,374.75a50.5,50.5,0,0,1,22.5,13.87q8.81,9.57,8.82,24.15,0,21-14.12,32.83t-44.51,11.9l-55.24.06A10,10,0,0,1,726.11,454.61Zm56.37-87.15q20.52,0,28.82-6.94t8.29-19.35a20.28,20.28,0,0,0-8.91-17.25q-8.88-6.44-24.33-6.42l-42.21.05.06,49.95Zm4.22,71q22,0,31.25-6.83t9.19-19.3q0-25.86-40.26-25.82l-42.74.05.06,51.95Z" transform="translate(-179.99 -170.92)"/><path class="cls-1" d="M893.17,456.31a10,10,0,0,1-3-7.42L890,305.68a10.5,10.5,0,0,1,3-7.55,10,10,0,0,1,7.45-3.15,10.7,10.7,0,0,1,10.7,10.67l.16,143.22a9.88,9.88,0,0,1-3.13,7.42,10.48,10.48,0,0,1-7.55,3A10.07,10.07,0,0,1,893.17,456.31Z" transform="translate(-179.99 -170.92)"/><path class="cls-1" d="M954.64,452.3a15.79,15.79,0,0,1-3.5-10.3L951,304.46a11.74,11.74,0,0,1,2.44-7.53,7.41,7.41,0,0,1,6-3.13,7.65,7.65,0,0,1,6.13,3.12,11.51,11.51,0,0,1,2.55,7.52l.15,131.06,61.65-.07a7.63,7.63,0,0,1,6.12,3.11,11.51,11.51,0,0,1,2.56,7.53,11.08,11.08,0,0,1-2.54,7.42,7.73,7.73,0,0,1-6.12,3l-66.93.07A10.45,10.45,0,0,1,954.64,452.3Z" transform="translate(-179.99 -170.92)"/><path class="cls-1" d="M1071.46,452.31a14,14,0,0,1-4.32-10.3L1067,304.36a10.37,10.37,0,0,1,3-7.53,9.92,9.92,0,0,1,7.44-3.14,10.36,10.36,0,0,1,7.56,3.12,10.26,10.26,0,0,1,3.14,7.53l.14,131.16,76-.08a10.67,10.67,0,0,1,10.7,10.64,9.81,9.81,0,0,1-3.13,7.42,10.49,10.49,0,0,1-7.54,3l-82.54.09A14.1,14.1,0,0,1,1071.46,452.31Z" transform="translate(-179.99 -170.92)"/><line class="cls-2" x1="560.15" y1="342.08" x2="560.15" y2="345.08"/><text class="cls-3" transform="matrix(1.16, 0.35, -0.29, 0.96, 364.44, 251.43)">n</text></svg>