<?xml version="1.0" encoding="utf-8"?>
<!-- Generator: Adobe Illustrator 22.1.0, SVG Export Plug-In . SVG Version: 6.00 Build 0)  -->
<svg version="1.1" id="Calque_1" xmlns="http://www.w3.org/2000/svg" xmlns:xlink="http://www.w3.org/1999/xlink" x="0px" y="0px"
	 viewBox="0 0 995 356" style="enable-background:new 0 0 995 356;" xml:space="preserve">
<style type="text/css">
	.st0{fill:#0D8787;}
	.st1{fill:#FFFFFF;}
	.st2{fill:none;stroke:#626262;stroke-miterlimit:10;}
	.st3{font-family:'VarelaRound-Regular';}
	.st4{font-size:214.7795px;}
</style>
<title>logo-langing-page-white-demo-2</title>
<path class="st0" d="M506.9,8.2L457.6,32c-1.3,0.6-2.8,0.1-3.5-1.2c0-0.1-0.1-0.2-0.1-0.2l-1-2.6c-0.6-1.4,0-3.1,1.4-3.8l49.3-23.9
	c1.3-0.6,2.8-0.1,3.5,1.2c0,0.1,0.1,0.1,0.1,0.2l1.1,2.6C508.9,5.8,508.3,7.5,506.9,8.2z"/>
<path class="st0" d="M539,87.2l-49.3,23.9c-1.3,0.6-2.8,0.1-3.5-1.2c0-0.1-0.1-0.1-0.1-0.2L485,107c-0.6-1.4,0-3.1,1.4-3.8
	l49.3-23.9c1.3-0.6,2.8-0.1,3.4,1.2c0,0.1,0.1,0.1,0.1,0.2l1.1,2.6C540.9,84.8,540.4,86.4,539,87.2z"/>
<path class="st0" d="M372.2,105l98-41.9l-10-24.6c-0.6-1.4,0-3.1,1.4-3.8L506,13.3c1.3-0.6,2.8-0.1,3.4,1.2c0,0.1,0.1,0.1,0.1,0.2
	l23.5,58c0.6,1.4,0,3.1-1.4,3.8L487.3,98c-1.3,0.6-2.8,0.1-3.4-1.2c0-0.1-0.1-0.1-0.1-0.2l-10-24.6l-94.3,51.2
	c-1.2,0.7-2.7,0.2-3.3-1c-0.1-0.1-0.1-0.2-0.2-0.4l-5.3-13.2C370.1,107.3,370.7,105.6,372.2,105z"/>
<path class="st0" d="M356.8,110.7l4.9-2.4c1.3-0.6,2.8-0.1,3.4,1.2c0,0.1,0.1,0.1,0.1,0.2l6.4,15.8c0.6,1.4,0,3.1-1.4,3.8l-4.9,2.4
	c-1.3,0.6-2.8,0.1-3.4-1.2c0-0.1-0.1-0.2-0.1-0.2l-6.4-15.8C354.8,113.1,355.4,111.5,356.8,110.7z"/>
<path class="st1" d="M3.1,283.7c-2-1.9-3.1-4.6-3-7.4L0,136.2c-0.1-2.8,1-5.5,3-7.5c1.9-2,4.6-3.2,7.4-3.1l54.5-0.1
	c16.5,0,29.2,3.8,38.2,11.3c9,7.5,13.5,17.7,13.5,30.5c0,8.9-2.1,16.4-6.3,22.3c-4.1,5.8-9.7,10.4-16.3,13.3
	c8.7,2.6,16.5,7.4,22.8,14c5.9,6.4,8.9,14.6,8.9,24.5c0,14.2-4.8,25.2-14.3,33.2s-24.5,12-45,12l-55.8,0.1
	C7.8,286.7,5.1,285.6,3.1,283.7z M58.4,194.5c13.7,0,23.2-2.3,28.8-6.9s8.3-11.1,8.3-19.4c0.2-6.9-3.2-13.4-8.9-17.2
	c-5.9-4.3-14-6.4-24.3-6.4l-42.1,0l0.1,50L58.4,194.5z M63.4,266.5c15,0,25.5-2.3,31.8-7c6.2-4.7,9.4-11.2,9.4-19.7
	c0-17.6-13.6-26.4-40.9-26.3l-43.5,0l0.1,52.9L63.4,266.5z"/>
<path class="st1" d="M163.2,286.1c-2-2-3.1-4.6-3-7.4L160,135.1c-0.1-2.8,1-5.5,3-7.6c1.9-2.1,4.6-3.2,7.5-3.1
	c5.9,0,10.7,4.8,10.7,10.7l0.2,143.5c0.1,2.8-1.1,5.5-3.1,7.4c-2,2-4.7,3.1-7.5,3C167.8,289.1,165.1,288,163.2,286.1z"/>
<path class="st1" d="M229.2,283.6c-2-1.9-3.1-4.6-3-7.4L226,136.2c-0.1-2.8,1-5.5,3-7.5c1.9-2,4.6-3.2,7.4-3.1l46.4,0
	c17.5,0,32.4,3.9,44.6,11.6c11.8,7.3,21.3,17.7,27.6,30.1c12.3,24.4,12.4,53.1,0.1,77.5c-6.2,12.4-15.8,22.8-27.5,30.1
	c-12.2,7.8-27.1,11.7-44.6,11.7l-46.4,0C233.8,286.7,231.1,285.6,229.2,283.6z M279.5,266.5c12.6,0,23.7-2.6,33.2-7.8
	c9.3-4.9,17-12.4,22.2-21.5c5.2-9.2,7.8-19.7,7.8-31.8c0-12-2.6-22.6-7.9-31.8c-5.2-9.1-12.9-16.6-22.2-21.5
	c-9.6-5.1-20.7-7.7-33.3-7.7h-33.3l0.1,122L279.5,266.5z"/>
<path class="st1" d="M546.1,283.7c-2-1.9-3.1-4.5-3-7.3L543,138.1c0-2.8,1-5.4,3-7.4c1.9-2,4.5-3.1,7.3-3.1l53.9-0.1
	c16.3,0,28.9,3.7,37.8,11.1s13.4,17.4,13.4,30.1c0,8.8-2.1,16.2-6.3,22c-4.1,5.8-9.6,10.3-16.1,13.1c8.6,2.5,16.4,7.3,22.5,13.9
	c5.9,6.4,8.8,14.4,8.8,24.1c0,14-4.7,24.9-14.1,32.8c-9.4,7.9-24.2,11.9-44.5,11.9l-55.2,0.1C550.7,286.7,548.1,285.6,546.1,283.7z
	 M602.5,196.5c13.7,0,23.3-2.3,28.8-6.9c5.5-4.6,8.3-11.1,8.3-19.4c0.2-6.9-3.2-13.4-8.9-17.2c-5.9-4.3-14-6.4-24.3-6.4l-42.2,0
	l0.1,50L602.5,196.5z M606.7,267.5c14.7,0,25.1-2.3,31.2-6.8s9.2-11,9.2-19.3c0-17.2-13.4-25.8-40.3-25.8l-42.7,0l0.1,52
	L606.7,267.5z"/>
<path class="st1" d="M713.2,285.4c-2-1.9-3.1-4.6-3-7.4L710,134.8c-0.1-2.8,1-5.5,3-7.5c1.9-2.1,4.6-3.2,7.5-3.1
	c5.9,0,10.7,4.8,10.7,10.7l0.2,143.2c0.1,2.8-1.1,5.5-3.1,7.4c-2,2-4.7,3.1-7.5,3C717.8,288.5,715.1,287.4,713.2,285.4z"/>
<path class="st1" d="M774.7,281.4c-2.3-2.9-3.6-6.6-3.5-10.3L771,133.5c-0.1-2.7,0.8-5.4,2.4-7.5c1.4-1.9,3.6-3.1,6-3.1
	c2.4,0,4.7,1.2,6.1,3.1c1.7,2.1,2.6,4.8,2.5,7.5l0.2,131.1l61.7-0.1c2.4,0,4.7,1.2,6.1,3.1c1.7,2.1,2.6,4.8,2.6,7.5
	c0.1,2.7-0.8,5.3-2.5,7.4c-1.5,1.9-3.7,3-6.1,3l-66.9,0.1C779.7,285.6,776.6,284,774.7,281.4z"/>
<path class="st1" d="M891.5,281.4c-2.8-2.7-4.4-6.4-4.3-10.3L887,133.4c-0.1-2.8,1-5.5,3-7.5c1.9-2.1,4.6-3.2,7.4-3.1
	c2.8,0,5.6,1.1,7.6,3.1c2,2,3.2,4.7,3.1,7.5l0.1,131.2l76-0.1c5.9,0,10.7,4.7,10.7,10.6c0,0,0,0,0,0c0.1,2.8-1.1,5.5-3.1,7.4
	c-2,2-4.7,3.1-7.5,3l-82.5,0.1C897.9,285.7,894.2,284.2,891.5,281.4z"/>
<line class="st2" x1="560.2" y1="342.1" x2="560.2" y2="345.1"/>
<text transform="matrix(1.1567 0.349 -0.2892 0.9573 364.4393 251.4293)" class="st0 st3 st4">n</text>
</svg>
