<svg id="Calque_1" data-name="Calque 1" xmlns="http://www.w3.org/2000/svg" viewBox="0 0 298 267"><defs><style>.cls-1{fill:#0d8787;}.cls-2{fill:#fff;}</style></defs><title>logo-hammer-solo-white</title><rect class="cls-1" width="298" height="267"/><path class="cls-2" d="M712.77,314.07,678,358.19a2.67,2.67,0,0,1-3.92.25l-2.17-2a3.11,3.11,0,0,1-.43-4.15l34.83-44.12a2.64,2.64,0,0,1,3.9-.26l2.17,2A3.1,3.1,0,0,1,712.77,314.07Z" transform="translate(-550 -265)"/><path class="cls-2" d="M777.81,372.64,743,416.77a2.66,2.66,0,0,1-3.91.26l-2.16-1.95a3.09,3.09,0,0,1-.43-4.16l34.82-44.12a2.64,2.64,0,0,1,3.9-.25l2.17,1.95A3.07,3.07,0,0,1,777.81,372.64Z" transform="translate(-550 -265)"/><path class="cls-2" d="M631.81,463.84l71.76-82.58-20.21-18.19a3.12,3.12,0,0,1-.44-4.16l31.35-39.71a2.66,2.66,0,0,1,3.91-.25l47.7,42.95a3.12,3.12,0,0,1,.43,4.16L735,405.76a2.64,2.64,0,0,1-3.9.26l-20.21-18.19-64.06,89.5a2.51,2.51,0,0,1-3.81.33l-10.85-9.76A2.94,2.94,0,0,1,631.81,463.84Z" transform="translate(-550 -265)"/><path class="cls-2" d="M620.19,476l3.48-4.4a2.66,2.66,0,0,1,3.91-.26l13,11.71a3.1,3.1,0,0,1,.42,4.15l-3.47,4.41a2.65,2.65,0,0,1-3.91.25l-13-11.71A3.09,3.09,0,0,1,620.19,476Z" transform="translate(-550 -265)"/></svg>